<!DOCTYPE svg PUBLIC "-//W3C//DTD SVG 20010904//EN" "http://www.w3.org/TR/2001/REC-SVG-20010904/DTD/svg10.dtd">
<svg version="1.0" xmlns="http://www.w3.org/2000/svg" width="64px" height="64px" viewBox="0 0 640 640" preserveAspectRatio="xMidYMid meet">
<g id="layer1" fill="#000000" stroke="none">
 <path d="M178 572 c-21 -37 -61 -104 -89 -150 -56 -89 -65 -128 -34 -162 25 -27 82 -27 112 2 l23 21 0 -119 c0 -148 8 -164 80 -164 58 0 80 23 80 82 0 31 4 38 19 38 10 0 24 7 31 15 7 8 24 15 39 15 15 0 35 6 46 14 11 7 34 17 51 20 60 13 69 35 69 160 -1 83 -7 132 -23 195 -13 47 -25 88 -28 93 -3 4 -80 8 -172 8 l-167 0 -37 -68z m334 -62 c10 -40 16 -101 16 -160 -1 -66 -3 -82 -7 -51 -6 46 -27 68 -55 58 -12 -5 -16 -20 -16 -67 0 -71 -18 -81 -22 -13 -2 37 -7 49 -21 51 -33 6 -47 -17 -49 -82 l-1 -61 -6 49 c-6 51 -26 74 -55 63 -13 -5 -16 -24 -16 -117 0 -65 -4 -110 -10 -110 -6 0 -11 67 -12 166 -3 148 -5 168 -21 178 -15 9 -26 2 -72 -49 -30 -33 -54 -56 -55 -52 0 4 29 54 64 110 36 57 70 115 77 130 l12 28 116 -3 116 -3 17 -65z"/>
 </g>

</svg>