<!DOCTYPE svg PUBLIC "-//W3C//DTD SVG 20010904//EN" "http://www.w3.org/TR/2001/REC-SVG-20010904/DTD/svg10.dtd">
<svg version="1.0" xmlns="http://www.w3.org/2000/svg" width="64px" height="64px" viewBox="0 0 640 640" preserveAspectRatio="xMidYMid meet">
<g id="layer1" fill="#ffffff" stroke="none">
 <path d="M26 614 l-26 -27 0 -267 0 -267 26 -27 27 -26 267 0 267 0 27 26 26 27 0 267 0 267 -26 27 -27 26 -267 0 -267 0 -27 -26z m359 -158 c55 -23 63 -100 13 -124 -33 -16 -34 -22 -7 -45 14 -13 19 -27 17 -50 -4 -42 -35 -57 -120 -57 l-68 0 0 145 0 145 65 0 c36 0 81 -6 100 -14z"/>
 <path d="M274 426 c-3 -8 -4 -31 -2 -52 3 -37 5 -39 40 -42 27 -2 43 3 57 17 26 26 26 46 1 71 -24 24 -88 28 -96 6z"/>
 <path d="M274 296 c-3 -8 -4 -29 -2 -48 3 -28 7 -33 31 -36 30 -4 67 21 67 45 0 38 -83 72 -96 39z"/>
 </g>

</svg>