<!DOCTYPE svg PUBLIC "-//W3C//DTD SVG 20010904//EN" "http://www.w3.org/TR/2001/REC-SVG-20010904/DTD/svg10.dtd">
<svg version="1.0" xmlns="http://www.w3.org/2000/svg" width="64px" height="64px" viewBox="0 0 640 640" preserveAspectRatio="xMidYMid meet">
<g id="layer1" fill="#000000" stroke="none">
 <path d="M12 628 c-17 -17 -17 -599 0 -616 17 -17 599 -17 616 0 17 17 17 599 0 616 -17 17 -599 17 -616 0z m548 -198 c0 -105 -3 -130 -14 -130 -9 0 -17 16 -21 43 -9 55 -26 85 -67 123 -48 46 -76 57 -138 57 -62 0 -90 -11 -138 -57 -41 -38 -58 -68 -67 -123 -4 -27 -12 -43 -21 -43 -11 0 -14 25 -14 130 l0 130 240 0 240 0 0 -130z m-164 -34 c28 -28 34 -42 34 -76 0 -34 -6 -48 -34 -76 -48 -48 -104 -48 -152 0 -28 28 -34 42 -34 76 0 60 50 110 110 110 34 0 48 -6 76 -34z m164 -281 c0 -33 -2 -35 -35 -35 -32 0 -35 3 -35 28 0 16 3 32 7 35 3 4 19 7 35 7 25 0 28 -3 28 -35z"/>
 </g>

</svg>